<?xml version="1.0" encoding="utf-8"?>
<!-- Generator: Adobe Illustrator 20.1.0, SVG Export Plug-In . SVG Version: 6.00 Build 0)  -->
<svg version="1.1" id="Layer_1" xmlns="http://www.w3.org/2000/svg" xmlns:xlink="http://www.w3.org/1999/xlink" x="0px" y="0px"
	 viewBox="0 0 173.8 44.8" style="enable-background:new 0 0 173.8 44.8;" xml:space="preserve">
<style type="text/css">
	.st0{fill:#004351;}
</style>
<g>
	<path class="st0" d="M142,13.1c-1.8,0.7-3.5,1.7-5,3v-3.9h-4.2v32.5h4.2V22.7c1-1.6,2-2.8,2.9-3.6c1.1-1,2.4-1.7,4-2.3
		c1.1-0.4,2.1-0.6,3.2-0.8v-3.9C145.3,12.2,143.6,12.5,142,13.1"/>
	<path class="st0" d="M22,0.6l20.6,44.2h-4.8l-6.9-14.5h-19L4.9,44.8H0L20.9,0.6H22z M21.4,10l-7.6,16h15.1L21.4,10z"/>
	<rect x="45.9" y="-0.5" class="st0" width="4.2" height="45.3"/>
	<path class="st0" d="M56.7,45.2V-0.5h4.2l0,18.4c1.8-2.2,3.8-3.6,6-4.7c2.2-1.1,4.6-1.6,7.2-1.6c4.7,0,8.6,1.7,11.9,5
		C89.4,20,91,24,91,28.8c0,4.7-1.7,8.7-5,12c-3.3,3.3-7.3,5-12,5c-2.7,0-5.1-0.6-7.3-1.7c-2.2-1.1-4.1-2.7-5.8-5v6.1H56.7z M74.3,42
		c2.4,0,4.5-0.6,6.5-1.7c2-1.2,3.6-2.8,4.8-4.9c1.2-2.1,1.8-4.3,1.8-6.7c0-2.3-0.6-4.6-1.8-6.7c-1.2-2.1-2.8-3.8-4.8-5
		c-2-1.2-4.1-1.8-6.4-1.8c-2.3,0-4.5,0.6-6.6,1.8c-2.1,1.2-3.7,2.8-4.8,4.8c-1.1,2-1.7,4.3-1.7,6.8c0,3.8,1.3,7,3.8,9.6
		C67.5,40.7,70.6,42,74.3,42"/>
	<path class="st0" d="M123.4,34l3.5,1.9c-1.2,2.3-2.5,4.1-4,5.5c-1.5,1.4-3.2,2.5-5.1,3.2c-1.9,0.7-4.1,1.1-6.5,1.1
		c-5.3,0-9.5-1.7-12.5-5.2c-3-3.5-4.5-7.4-4.5-11.8c0-4.1,1.3-7.8,3.8-11.1c3.2-4.1,7.5-6.2,13-6.2c5.6,0,10,2.1,13.3,6.3
		c2.4,3,3.6,6.7,3.6,11.2H98.6c0.1,3.8,1.3,6.9,3.6,9.3c2.3,2.4,5.2,3.6,8.7,3.6c1.7,0,3.3-0.3,4.9-0.9c1.6-0.6,2.9-1.3,4-2.3
		C120.9,37.6,122.1,36.1,123.4,34 M123.4,25.2c-0.6-2.2-1.4-4-2.5-5.4c-1.1-1.3-2.5-2.4-4.3-3.2c-1.8-0.8-3.6-1.2-5.6-1.2
		c-3.2,0-6,1-8.3,3.1c-1.7,1.5-3,3.8-3.8,6.8H123.4z"/>
	<polygon class="st0" points="156.7,0 160.9,0 160.9,12.1 168.4,12.1 168.4,16.2 160.9,16.2 160.9,44.8 156.7,44.8 156.7,16.2 
		151,16.2 151,12.1 156.7,12.1 	"/>
	<path class="st0" d="M169.7,3.3v0.5h-1v2.5h-0.5V3.8h-1V3.3H169.7z M173.8,3.3v2.9h-0.5V3.8l-1.1,2.4h-0.3l-1.1-2.4v2.4h-0.5V3.3
		h0.8l0.9,2l1-2H173.8z"/>
</g>
</svg>
